<?xml version="1.0" encoding="utf-8"?>
<svg version="1.1" id="레이어_1" xmlns="http://www.w3.org/2000/svg" xmlns:xlink="http://www.w3.org/1999/xlink" x="0px"
	 y="0px" width="192" height="192" viewBox="0 0 512 512" style="enable-background:new 0 0 512 512;" xml:space="preserve">
<style type="text/css">
	.st0{fill:#9CA3AF;}
	.st1{fill:none;stroke:#FFFFFF;stroke-width:21.3333;stroke-linecap:round;stroke-linejoin:round;stroke-miterlimit:10.6667;}
	.st2{fill:#FFFFFF;}
	.st3{fill:none;stroke:#FFFFFF;stroke-width:10.6667;stroke-linejoin:round;stroke-miterlimit:10.6667;}
</style>
<rect y="0" class="st0" width="512" height="512"/>
<path class="st1" d="M266,106.7h155.3v298.7"/>
<circle class="st2" cx="337.7" cy="202.7" r="48"/>
<path class="st2" d="M331.3,256H346c12.2,0,22,7.2,22,16v117.3c0,8.8-9.8,16-22,16h-14.7c-12.2,0-22-7.2-22-16V272
	C309.3,263.2,319.2,256,331.3,256z"/>
<circle class="st2" cx="135" cy="213.3" r="48"/>
<path class="st2" d="M101.8,261.1c-17.2,59.8-7.3,117.8,25.7,158.7l28.5,3.4l26.8-106.5l24.1-34L187,249.5l-26.8,23.7L101.8,261.1z"
	/>
<path class="st3" d="M212,229.3l57.6-11.1c2.9-0.6,5.7,1.3,6.2,4.2l7.1,36.7c0.6,2.9-1.3,5.7-4.2,6.2l-57.6,11.1
	c-2.9,0.6-5.7-1.3-6.2-4.2l-7.1-36.7C207.2,232.6,209.1,229.8,212,229.3z"/>
<g>
	<g>
		<path class="st2" d="M228.6,256.6l1.9-2.1c1,1.2,2.1,1.6,3.2,1.4c1.7-0.3,2.4-1.4,1.9-4l-2.4-12.2l3.2-0.6l2.5,12.5
			c0.7,3.3-0.4,6.4-4.2,7.1C232.1,259.1,230.2,258.4,228.6,256.6z"/>
		<path class="st2" d="M239.1,238.5l3.3-0.7l3.4,8.9c0.7,1.9,1.4,3.7,2.1,5.6l0.1,0c0-2,0-4,0-6l0.4-9.6l2.8-0.6l4.1,8.7
			c0.8,1.8,1.6,3.7,2.4,5.6l0.1,0c-0.1-2-0.2-4-0.3-6l-0.3-9.5l3.1-0.6l0.2,18.8l-4,0.8l-4.2-9.1c-0.6-1.4-1.1-2.7-1.6-4l-0.1,0
			c0,1.4,0,2.9,0,4.3l-0.3,10l-3.9,0.8L239.1,238.5z"/>
	</g>
</g>
</svg>
